HIERARCHY
ROOT Hips
{
    OFFSET 0.000000 0.000000 0.000000
    CHANNELS 6 Xposition Yposition Zposition Zrotation Xrotation Yrotation
    JOINT Spine
    {
        OFFSET -0.000000 7.925200 0.000000
        CHANNELS 3 Zrotation Xrotation Yrotation
        JOINT Spine1
        {
            OFFSET -0.000000 23.364719 0.000000
            CHANNELS 3 Zrotation Xrotation Yrotation
            JOINT Neck
            {
                OFFSET -0.000000 23.268766 2.115342
                CHANNELS 3 Zrotation Xrotation Yrotation
                JOINT Head
                {
                    OFFSET -0.000000 13.530829 -1.932976
                    CHANNELS 3 Zrotation Xrotation Yrotation
                    End Site
                    {
                        OFFSET -0.000000 24.162195 0.000000
                    }
                }
            }
            JOINT LeftShoulder
            {
                OFFSET 3.858291 22.792089 -0.033814
                CHANNELS 3 Zrotation Xrotation Yrotation
                JOINT LeftArm
                {
                    OFFSET 7.057024 0.000000 0.000000
                    CHANNELS 3 Zrotation Xrotation Yrotation
                    JOINT LeftForeArm
                    {
                        OFFSET 34.734173 0.000000 0.000000
                        CHANNELS 3 Zrotation Xrotation Yrotation
                        JOINT LeftHand
                        {
                            OFFSET 23.943203 0.000000 0.000000
                            CHANNELS 3 Zrotation Xrotation Yrotation
                            End Site
                            {
                                OFFSET 14.497317 0.000000 0.000000
                            }
                        }
                    }
                }
            }
            JOINT RightShoulder
            {
                OFFSET -3.868823 22.792089 -0.033814
                CHANNELS 3 Zrotation Xrotation Yrotation
                JOINT RightArm
                {
                    OFFSET -7.057024 0.000000 0.000000
                    CHANNELS 3 Zrotation Xrotation Yrotation
                    JOINT RightForeArm
                    {
                        OFFSET -34.734173 0.000000 0.000000
                        CHANNELS 3 Zrotation Xrotation Yrotation
                        JOINT RightHand
                        {
                            OFFSET -23.943203 0.000000 0.000000
                            CHANNELS 3 Zrotation Xrotation Yrotation
                            End Site
                            {
                                OFFSET -14.497317 0.000000 0.000000
                            }
                        }
                    }
                }
            }
        }
    }
    JOINT LeftUpLeg
    {
        OFFSET 9.664878 0.000000 0.000000
        CHANNELS 3 Zrotation Xrotation Yrotation
        JOINT LeftLeg
        {
            OFFSET -0.000000 -38.728706 0.000000
            CHANNELS 3 Zrotation Xrotation Yrotation
            JOINT LeftFoot
            {
                OFFSET -0.000000 -40.242161 0.000000
                CHANNELS 3 Zrotation Xrotation Yrotation
                JOINT LeftToeBase
                {
                    OFFSET -0.000000 -6.282171 14.497317
                    CHANNELS 3 Zrotation Xrotation Yrotation
                    End Site
                    {
                        OFFSET -0.000000 0.000000 3.865951
                    }
                }
            }
        }
    }
    JOINT RightUpLeg
    {
        OFFSET -9.664878 0.000000 0.000000
        CHANNELS 3 Zrotation Xrotation Yrotation
        JOINT RightLeg
        {
            OFFSET -0.000000 -38.728706 0.000000
            CHANNELS 3 Zrotation Xrotation Yrotation
            JOINT RightFoot
            {
                OFFSET -0.000000 -40.242161 0.000000
                CHANNELS 3 Zrotation Xrotation Yrotation
                JOINT RightToeBase
                {
                    OFFSET -0.000000 -6.282171 14.497317
                    CHANNELS 3 Zrotation Xrotation Yrotation
                    End Site
                    {
                        OFFSET -0.000000 0.000000 3.865951
                    }
                }
            }
        }
    }
}
MOTION
Frames:    12
Frame Time:    0.008333
124.813210    42.525173    6.313856    24.000864    -5.749722    84.365387    1.981389    39.975941    0.161834    -4.729248    16.665359    1.575634    -2.453550    1.411970    8.252425    -0.218835    -22.435093    8.840200    3.992002    -2.697887    -0.365466    -6.638683    47.916183    -54.151073    26.658133    -29.528549    -58.458591    -13.886437    -14.613292    -7.162080    -3.194464    1.155267    18.851515    10.379086    36.597755    60.457199    -21.693857    -18.625713    44.521973    1.853041    -10.164266    -15.910619    48.778137    -45.228657    24.112444    -178.232269    40.112633    154.028046    -7.520389    -29.817310    -5.586620    0.000000    0.000000    0.000000    -9.218353    -48.213478    -0.726027    171.294479    41.574158    -168.927185    14.124859    -38.346329    14.522565    0.000000    0.000000    0.000000    
124.866653    42.321747    6.322895    24.097023    -5.749659    84.335907    2.123541    39.932949    0.095980    -4.976240    16.903118    1.607332    -2.389587    1.312245    8.250585    -0.135915    -22.328997    8.859269    4.104908    -2.681652    -0.356103    -6.774382    47.693489    -53.980732    26.792351    -29.705114    -58.679497    -14.180926    -14.649654    -7.128081    -3.003826    1.130028    18.932774    10.074343    36.716408    60.422859    -22.290731    -18.991611    44.693947    2.223500    -10.296996    -15.481708    48.851254    -45.376350    24.178406    -178.428070    39.784321    154.303711    -7.705048    -29.744156    -5.701796    0.000000    0.000000    0.000000    -9.117980    -48.374187    -0.845258    171.612579    41.268196    -170.228394    14.829652    -38.080906    15.564038    0.000000    0.000000    0.000000    
124.911415    42.136559    6.332131    24.229792    -5.744245    84.282738    2.118774    39.852768    0.070251    -4.987404    17.265623    1.596071    -2.643591    1.274611    8.216862    0.103198    -22.382721    8.938659    3.765708    -2.620411    -0.242429    -6.450086    47.381454    -53.890633    27.189199    -29.891090    -58.698486    -15.072988    -14.496428    -7.652826    -3.192214    1.113156    19.030197    10.526423    36.293167    60.265224    -22.288055    -18.867462    44.854790    2.184974    -10.112561    -14.717387    48.860229    -45.459732    24.168608    -178.592834    39.509533    154.606735    -7.749611    -29.728476    -5.852405    0.000000    0.000000    0.000000    -9.188348    -48.427944    -0.718731    171.587158    40.888996    -169.738022    14.493270    -38.219604    15.084950    0.000000    0.000000    0.000000    
124.949478    41.956512    6.332850    24.301786    -5.735129    84.247940    2.072015    39.732708    0.145357    -4.946771    17.574066    1.659190    -2.292392    1.625869    8.419043    -0.813522    -22.901630    8.787300    3.941075    -2.842962    -0.395239    -7.055987    47.322990    -53.481804    26.873259    -29.983082    -59.217022    -14.307663    -14.740671    -7.102746    -3.332273    1.209503    18.912292    10.571424    35.970779    60.284283    -22.324320    -19.040493    45.078857    2.126033    -10.205190    -14.004323    48.891693    -45.606403    24.185333    -178.729935    39.240536    154.888947    -7.731551    -29.745621    -5.985281    0.000000    0.000000    0.000000    -9.202333    -48.547806    -0.696298    171.710510    40.584232    -169.787064    14.548021    -38.232319    15.077205    0.000000    0.000000    0.000000    
124.999260    41.835041    6.386246    24.531248    -5.899377    84.152863    2.161833    39.854401    0.183479    -5.054683    17.776979    1.758260    -2.553571    1.286305    8.211672    -0.165223    -22.347591    8.832173    3.959248    -2.876096    -0.524526    -7.373501    47.149876    -53.069527    27.225483    -30.091726    -59.131935    -15.137199    -14.532351    -7.855726    -3.144899    0.989711    19.129765    10.693593    36.080166    59.931591    -22.473976    -19.279747    45.268997    2.181967    -10.339073    -13.252942    49.002178    -45.388100    24.141880    -178.971024    39.062508    155.073273    -8.201668    -29.785089    -6.132266    0.000000    0.000000    0.000000    -8.788195    -48.417233    -0.369835    171.717300    40.399776    -169.916946    14.659443    -38.244186    15.242804    0.000000    0.000000    0.000000    
125.051819    41.652496    6.366494    24.559513    -5.812923    84.149384    2.183607    39.665977    0.127449    -5.130684    18.049957    1.730454    -2.499785    1.433522    8.324208    -0.390014    -22.589718    8.863501    3.762094    -2.721981    -0.459180    -7.049057    46.858074    -53.100758    26.891890    -30.354261    -59.614449    -14.349510    -15.010169    -7.167597    -3.207386    1.076453    19.058460    10.443735    35.941948    60.132809    -22.616301    -19.578814    45.443993    2.456068    -10.577356    -13.109594    48.955486    -45.572205    24.155138    -179.030731    38.765923    155.137650    -8.234496    -29.786757    -6.091356    0.000000    0.000000    0.000000    -8.966424    -48.593548    -0.491536    171.967545    40.119633    -170.283890    14.953559    -38.127422    15.622581    0.000000    0.000000    0.000000    
125.094414    41.496391    6.358634    24.583084    -5.780132    84.116547    2.172735    39.480324    0.143120    -5.149366    18.329052    1.754038    -2.514011    1.566661    8.291009    -0.496693    -22.776138    8.791725    4.031709    -2.905608    -0.535584    -7.642731    46.864677    -52.773724    26.739019    -30.502892    -59.857780    -14.301313    -15.206372    -7.072948    -3.376261    0.988419    19.112127    10.609984    35.868977    59.993378    -22.618235    -19.794666    45.684292    2.582460    -10.753591    -12.818398    49.018272    -45.781601    24.237112    -179.087173    38.544781    155.377060    -8.440221    -29.599842    -6.279177    0.000000    0.000000    0.000000    -8.914327    -48.757545    -0.569712    172.303909    39.952095    -171.226776    15.614087    -37.889698    16.526180    0.000000    0.000000    0.000000    
125.164986    41.367233    6.350634    24.641851    -5.720992    84.173729    2.219039    39.235325    0.065402    -5.169381    18.712481    1.708717    -2.527958    1.499651    8.306289    -0.516264    -22.662920    8.805007    3.991535    -2.967810    -0.561671    -7.820630    46.757641    -52.514492    26.648825    -30.679474    -60.054501    -14.444866    -15.380126    -7.140547    -3.469122    0.817731    19.109779    10.656775    35.887531    59.981110    -22.565628    -19.921463    45.854660    2.536142    -10.859649    -12.617749    48.923389    -45.912701    24.167492    -179.144012    38.211021    155.223862    -8.254286    -29.659031    -5.846403    0.000000    0.000000    0.000000    -9.255190    -48.744255    -0.579155    172.274445    39.693146    -170.181381    15.114592    -38.053066    15.783962    0.000000    0.000000    0.000000    
125.176659    41.263573    6.368289    24.583685    -5.773068    84.124786    2.200552    39.144295    0.089937    -5.110149    18.742569    1.716236    -2.585816    1.513680    8.338827    -0.504109    -22.538517    8.850939    3.956481    -3.153746    -0.425473    -7.779928    46.945026    -52.558994    26.594954    -30.844765    -60.094898    -14.385416    -15.572743    -7.272038    -3.449248    0.868468    19.205374    10.642146    35.819706    59.850475    -22.568134    -19.991859    45.939713    2.757420    -10.926065    -12.187931    49.076828    -46.022655    24.275990    -179.185654    38.023144    155.237701    -8.211339    -29.775206    -5.692392    0.000000    0.000000    0.000000    -9.164293    -48.861980    -0.428079    172.285614    39.509811    -170.202240    15.299316    -38.084034    16.028515    0.000000    0.000000    0.000000    
125.234154    41.170193    6.379241    24.824163    -5.821258    84.013046    2.106483    39.292290    0.181715    -5.078986    18.861336    1.777869    -2.556278    1.531287    8.357835    -0.652728    -22.512516    8.817256    3.952994    -3.103355    -0.470252    -8.001653    46.813290    -52.343273    26.386633    -31.005779    -60.273457    -14.017323    -15.811966    -7.559838    -3.396117    0.885382    19.121220    10.364415    35.807514    59.971451    -22.610735    -20.091810    46.059959    3.017867    -11.008938    -12.101654    49.044880    -45.813251    24.189802    -179.263748    37.830387    155.174866    -7.840117    -29.848658    -5.346190    0.000000    0.000000    0.000000    -8.994504    -48.690418    -0.131171    172.319702    39.373375    -170.195740    15.416740    -38.086678    16.241898    0.000000    0.000000    0.000000    
125.270699    41.062428    6.386483    24.867397    -5.884336    84.003395    2.152549    39.272758    0.172203    -5.028304    18.918221    1.778479    -2.623210    1.738622    8.345243    -0.702522    -22.812475    8.789959    3.978562    -2.894917    -0.654854    -8.407960    46.552139    -51.937237    26.254778    -31.138491    -60.438812    -14.000507    -15.994076    -7.530809    -3.468251    0.886904    19.019581    10.267507    35.796577    60.083279    -22.603418    -20.076910    46.165833    2.947972    -10.963145    -12.045775    49.148743    -45.866280    24.235769    -179.365143    37.626141    155.204102    -7.847380    -29.880289    -5.243292    0.000000    0.000000    0.000000    -8.980412    -48.712868    -0.132877    172.396027    39.210106    -170.182755    15.489218    -38.062065    16.320297    0.000000    0.000000    0.000000    
125.310425    40.989632    6.389932    24.934193    -5.891282    83.981827    2.120875    39.301868    0.184142    -4.989980    18.913601    1.773140    -2.658797    1.628583    8.332998    -0.574135    -22.510683    8.828978    3.963657    -2.932553    -0.648600    -8.773079    46.459732    -51.702911    26.019592    -31.068882    -60.557991    -13.948665    -16.019207    -7.575612    -3.385875    0.934039    19.027086    10.122711    35.800346    60.046322    -22.616043    -20.032131    46.264843    2.861911    -10.879522    -12.075295    49.142159    -45.858917    24.214512    -179.431213    37.501091    155.246918    -7.885426    -29.874348    -5.221608    0.000000    0.000000    0.000000    -9.024859    -48.688690    -0.136018    172.444168    39.072098    -169.997330    15.397010    -38.093761    16.155855    0.000000    0.000000    0.000000    
